HIERARCHY
ROOT SpineBase
{
  OFFSET 0.000000 0.000000 0.000000
  CHANNELS 6 Xposition Yposition Zposition Zrotation Xrotation Yrotation
  JOINT SpineMid
  {
    OFFSET -0.000000 30.762155 0.000000
    CHANNELS 3 Zrotation Xrotation Yrotation
    JOINT SpineShoulder
    {
      OFFSET -0.046063 22.842953 -0.829419
      CHANNELS 3 Zrotation Xrotation Yrotation
      JOINT Neck
      {
        OFFSET -0.038463 7.577153 -0.619230
        CHANNELS 3 Zrotation Xrotation Yrotation
        JOINT Head
        {
          OFFSET 2.471677 14.665100 -0.365812
          CHANNELS 3 Zrotation Xrotation Yrotation
          End Site
          {
            OFFSET 0 0 0
          }
        }
      }
      JOINT ShoulderLeft
      {
        OFFSET -15.800574 -2.587184 -5.970354
        CHANNELS 3 Zrotation Xrotation Yrotation
        JOINT ElbowLeft
        {
          OFFSET -4.971836 -23.852135 -1.417017
          CHANNELS 3 Zrotation Xrotation Yrotation
          JOINT WristLeft
          {
            OFFSET 2.783875 -21.796472 -5.369893
            CHANNELS 3 Zrotation Xrotation Yrotation
            JOINT HandLeft
            {
              OFFSET 2.238314 -6.697163 -1.063480
              CHANNELS 3 Zrotation Xrotation Yrotation
              JOINT HandTipLeft
              {
                OFFSET 1.654751 -6.202384 0.381466
                CHANNELS 3 Zrotation Xrotation Yrotation
                End Site
                {
                  OFFSET 0 0 0
                }
              }
              JOINT ThumbLeft
              {
                OFFSET 3.005180 2.193061 -0.366365
                CHANNELS 3 Zrotation Xrotation Yrotation
                End Site
                {
                  OFFSET 0 0 0
                }
              }
            }
          }
        }
      }
      JOINT ShoulderRight
      {
        OFFSET 16.915644 -4.713292 3.204590
        CHANNELS 3 Zrotation Xrotation Yrotation
        JOINT ElbowRight
        {
          OFFSET 3.292517 -26.919410 1.993880
          CHANNELS 3 Zrotation Xrotation Yrotation
          JOINT WristRight
          {
            OFFSET 0.275743 -23.668266 -9.008508
            CHANNELS 3 Zrotation Xrotation Yrotation
            JOINT HandRight
            {
              OFFSET -0.480538 -5.732992 -5.421712
              CHANNELS 3 Zrotation Xrotation Yrotation
              JOINT HandTipRight
              {
                OFFSET -0.004383 -6.651411 -5.685811
                CHANNELS 3 Zrotation Xrotation Yrotation
                End Site
                {
                  OFFSET 0 0 0
                }
              }
              JOINT ThumbRight
              {
                OFFSET 0.534494 0.665841 1.943349
                CHANNELS 3 Zrotation Xrotation Yrotation
                End Site
                {
                  OFFSET 0 0 0
                }
              }
            }
          }
        }
      }
    }
  }
  JOINT HipLeft
  {
    OFFSET -7.787517 0.988607 -4.683521
    CHANNELS 3 Zrotation Xrotation Yrotation
    JOINT KneeLeft
    {
      OFFSET -3.292790 -28.891076 2.337629
      CHANNELS 3 Zrotation Xrotation Yrotation
      JOINT AnkleLeft
      {
        OFFSET -4.576909 -27.876848 9.717032
        CHANNELS 3 Zrotation Xrotation Yrotation
        JOINT FootLeft
        {
          OFFSET 2.799433 -4.740055 -13.150641
          CHANNELS 3 Zrotation Xrotation Yrotation
          End Site
          {
            OFFSET 0 0 0
          }
        }
      }
    }
  }
  JOINT HipRight
  {
    OFFSET 6.975616 0.866643 -2.247727
    CHANNELS 3 Zrotation Xrotation Yrotation
    JOINT KneeRight
    {
      OFFSET -3.050974 -31.586395 2.077404
      CHANNELS 3 Zrotation Xrotation Yrotation
      JOINT AnkleRight
      {
        OFFSET -8.576665 -31.135609 10.993247
        CHANNELS 3 Zrotation Xrotation Yrotation
        JOINT FootRight
        {
          OFFSET -11.579568 -2.707136 -4.136092
          CHANNELS 3 Zrotation Xrotation Yrotation
          End Site
          {
            OFFSET 0 0 0
          }
        }
      }
    }
  }
}
MOTION
Frames: 6
Frame Time: 0.033333
43.060251 73.357633 352.528172 0.000000 0.000000 -9.368923 -0.000000 0.000000 9.368923 -0.000000 0.000000 0.000000 -0.000000 0.000000 0.000000 0.000000 0.000000 0.000000 -0.000000 0.000000 0.000000 -0.000000 0.000000 0.000000 -0.000000 0.000000 0.000000 -0.000000 0.000000 0.000000 0.000000 0.000000 0.000000 0.000000 0.000000 0.000000 -0.000000 0.000000 0.000000 -0.000000 0.000000 0.000000 -0.000000 0.000000 0.000000 -0.000000 0.000000 0.000000 0.000000 0.000000 0.000000 0.000000 0.000000 0.000000 -0.000000 0.000000 9.368923 -0.000000 0.000000 0.000000 -0.000000 0.000000 0.000000 0.000000 0.000000 0.000000 -0.000000 0.000000 9.368923 -0.000000 0.000000 0.000000 -0.000000 0.000000 0.000000 0.000000 0.000000 0.000000
43.197909 73.406145 352.560894 0.062019 -0.016538 -9.071631 -0.063851 0.006552 9.071644 -0.000000 0.000000 0.000000 -0.754504 -0.335234 0.035431 0.000000 0.000000 0.000000 -1.034180 0.852486 -0.108313 0.141578 0.311025 0.487250 -5.101868 4.487973 2.681521 4.124763 -1.002659 -1.484573 0.000000 0.000000 0.000000 0.000000 0.000000 0.000000 -0.000000 0.000000 0.000000 -0.000000 0.000000 0.000000 0.276199 -2.117074 -0.080042 -1.051965 2.213917 0.778779 0.000000 0.000000 0.000000 0.000000 0.000000 0.000000 -0.063851 0.006552 9.071644 -0.000000 0.000000 0.000000 0.066054 1.197399 0.508336 0.000000 0.000000 0.000000 -0.063851 0.006552 9.071644 -0.000000 0.000000 0.000000 -1.759022 0.638894 -0.032872 0.000000 0.000000 0.000000
43.299825 73.444056 352.606070 0.080486 -0.060330 -8.830507 -0.088794 0.047259 8.830586 -0.000000 0.000000 0.000000 -1.421603 -0.658529 0.067208 0.000000 0.000000 0.000000 -1.954919 1.555709 -0.180815 0.094007 0.637479 0.955068 -9.693240 7.911925 5.197635 7.654270 -1.914748 -2.486061 0.000000 0.000000 0.000000 0.000000 0.000000 0.000000 -0.000000 0.000000 0.000000 -0.000000 0.000000 0.000000 0.437757 -4.249753 -0.042890 -1.890930 4.067323 1.417914 0.000000 0.000000 0.000000 0.000000 0.000000 0.000000 -0.088794 0.047259 8.830586 -0.000000 0.000000 0.000000 -0.286328 1.820003 1.797197 0.000000 0.000000 0.000000 -0.088794 0.047259 8.830586 -0.000000 0.000000 0.000000 -3.202467 1.171080 -0.072664 0.000000 0.000000 0.000000
43.365999 73.471366 352.663701 0.055346 -0.131390 -8.644739 -0.074466 0.121578 8.644881 -0.000000 0.000000 0.000000 -1.999623 -0.969223 0.096255 0.000000 0.000000 0.000000 -2.761142 2.107212 -0.223064 -0.139298 0.974486 1.399591 -13.478850 10.222963 7.281925 10.445545 -2.709157 -3.168183 0.000000 0.000000 0.000000 0.000000 0.000000 0.000000 -0.000000 0.000000 0.000000 -0.874258 -0.223672 0.328723 1.297223 -6.120028 -0.205720 -2.477275 5.500096 1.867420 0.000000 0.000000 0.000000 0.000000 0.000000 0.000000 -0.922653 0.331648 8.544797 0.807573 -0.333725 0.105791 -1.092462 1.865479 3.991119 0.000000 0.000000 0.000000 -0.074466 0.121578 8.644881 -0.000000 0.000000 0.000000 -4.363131 1.608578 -0.126915 0.000000 0.000000 0.000000
43.396431 73.488075 352.733786 -0.013426 -0.229712 -8.513545 -0.020729 0.229168 8.513559 -0.000000 0.000000 0.000000 -2.487182 -1.266747 0.123471 0.000000 0.000000 0.000000 -3.452203 2.505671 -0.239884 -0.553689 1.317925 1.818509 -16.322794 11.531781 8.774779 12.500974 -3.439964 -3.707581 0.000000 0.000000 0.000000 0.000000 0.000000 0.000000 -0.000000 0.000000 0.000000 -1.163116 -0.340731 0.435829 1.413449 -7.970992 0.006632 -2.772204 6.430451 2.072566 0.000000 0.000000 0.000000 0.000000 0.000000 0.000000 -1.033595 0.542035 8.390795 2.123224 -0.087419 0.486689 -3.586204 0.872642 6.969896 0.000000 0.000000 0.000000 -0.020729 0.229168 8.513559 -0.000000 0.000000 0.000000 -5.265626 1.960646 -0.201518 0.000000 0.000000 0.000000
43.391122 73.494182 352.816325 -0.125819 -0.355266 -8.436173 0.072340 0.369880 8.435550 -0.000000 0.000000 0.000000 -2.883159 -1.550608 0.149714 0.000000 0.000000 0.000000 -4.027787 2.750620 -0.235277 -1.143635 1.664577 2.211004 -18.213432 11.993803 9.617507 13.896628 -4.175063 -4.234433 0.000000 0.000000 0.000000 0.000000 0.000000 0.000000 -0.000000 0.000000 0.000000 -1.448160 -0.476979 0.540568 1.328227 -9.593568 0.386683 -2.745639 6.755837 1.979328 0.000000 0.000000 0.000000 0.000000 0.000000 0.000000 -1.044612 0.799888 8.295594 3.027169 -0.199971 0.802274 -6.370781 -0.717659 11.581368 0.000000 0.000000 0.000000 0.072340 0.369880 8.435550 -0.000000 0.000000 0.000000 -5.927114 2.233922 -0.301433 0.000000 0.000000 0.000000
